<svg width="138" height="26" viewBox="0 0 138 26" fill="none" xmlns="http://www.w3.org/2000/svg">
<path d="M3.65907 20.3181C2.63036 20.3203 1.68003 19.7688 1.17155 18.8746C0.670393 17.9858 0.700445 16.8931 1.24969 16.0332L6.37233 7.98895C6.90611 7.10877 7.87218 6.58386 8.90109 6.61496C9.92926 6.6396 10.8645 7.21607 11.3485 8.12353C11.826 9.0265 11.7663 10.1129 11.1943 10.9605L6.07496 19.0048C5.54733 19.827 4.63599 20.3224 3.65907 20.3181Z" fill="#F62B54"/>
<path d="M12.4459 20.3177C11.4127 20.3177 10.4619 19.7652 9.96271 18.8775C9.46266 17.9911 9.49272 16.9012 10.0408 16.0437L15.1537 8.0179C15.6798 7.12509 16.6487 6.58786 17.6847 6.6146C18.7265 6.63739 19.6708 7.2202 20.1483 8.13186C20.6226 9.04352 20.5531 10.1364 19.9638 10.9819L14.852 19.0077C14.326 19.8263 13.4189 20.3202 12.4459 20.3177Z" fill="#FFCC00"/>
<path d="M21.036 20.3859C22.4925 20.3859 23.6733 19.23 23.6733 17.804C23.6733 16.378 22.4925 15.222 21.036 15.222C19.5794 15.222 18.3987 16.378 18.3987 17.804C18.3987 19.23 19.5794 20.3859 21.036 20.3859Z" fill="#00CA72"/>
<path d="M135.607 15.3706C136.404 15.3706 136.88 15.9371 136.88 16.8651V20.045H137.962V16.7924C137.962 15.2143 137.219 14.2994 135.821 14.2994C135.274 14.2994 134.405 14.4492 133.888 15.4553C133.643 14.8507 133.085 14.4296 132.437 14.3591C132.236 14.3224 132.032 14.3104 131.829 14.3233C131.384 14.3591 130.592 14.6359 130.295 15.2632V14.4199H129.212V20.045H130.295V17.0094C130.295 15.8286 131.068 15.3706 131.842 15.3706C132.567 15.3706 133.043 15.9252 133.043 16.8531V20.045H134.12V17.0094C134.12 16.0695 134.684 15.3597 135.607 15.3706ZM125.237 19.1051C125.732 19.116 126.209 18.9185 126.555 18.5603C126.903 18.2022 127.087 17.7149 127.069 17.2145C127.069 16.0815 126.235 15.3706 125.237 15.3706C124.237 15.3706 123.405 16.0815 123.405 17.2145C123.385 17.7138 123.57 18.2 123.915 18.5571C124.26 18.9152 124.735 19.1138 125.228 19.1051H125.237ZM125.237 20.1601C123.654 20.1601 122.334 18.9912 122.334 17.208C122.334 15.4249 123.654 14.2929 125.237 14.2929C126.819 14.2929 128.151 15.4249 128.151 17.208C128.151 18.9912 126.812 20.1655 125.229 20.1655L125.237 20.1601ZM116.761 17.208L116.75 17.2145C116.75 15.4314 118.105 14.2994 119.699 14.2929C120.508 14.2772 121.286 14.6054 121.84 15.1959L121.019 15.8948C120.667 15.5492 120.192 15.3585 119.699 15.3652C118.7 15.3652 117.832 16.0761 117.832 17.208C117.832 17.9732 118.287 18.6623 118.984 18.9554C119.682 19.2484 120.485 19.0856 121.019 18.5451L121.852 19.2441C121.296 19.8407 120.514 20.1736 119.699 20.1601C118.117 20.1601 116.761 18.9912 116.761 17.208ZM113.295 18.9651C113.293 18.7665 113.37 18.5751 113.508 18.4331C113.647 18.291 113.837 18.2099 114.035 18.2076C114.234 18.2099 114.424 18.291 114.562 18.4331C114.701 18.5751 114.778 18.7665 114.776 18.9651C114.756 19.3605 114.431 19.6719 114.035 19.676C113.64 19.6719 113.315 19.3605 113.295 18.9651Z" fill="#333333"/>
<path d="M116.256 7.2694H112.402L109.701 14.2338L107.014 7.2694H103.16L107.845 18.2744L104.931 25.5503H108.757L116.256 7.2694ZM92.818 13.3905C92.818 15.1487 94.3548 16.3057 95.8644 16.3057C97.348 16.3057 98.8056 15.229 98.8056 13.3894C98.8056 11.5498 97.348 10.4721 95.8644 10.4721C94.3548 10.4721 92.818 11.6302 92.818 13.3894V13.3905ZM98.8056 19.5355V18.1431C98.0242 19.3261 96.2009 19.7732 95.2653 19.7732C92.1679 19.7732 89.0693 17.3313 89.0693 13.3894C89.0693 9.44869 92.1668 7.00675 95.2653 7.00675C96.0457 7.00675 97.869 7.26723 98.8056 8.63471V7.27374H102.398V19.5377L98.8056 19.5366V19.5355ZM88.047 19.5355H84.4546V18.0118C83.8544 19.1405 82.399 19.7982 80.8883 19.7982C77.7637 19.7982 75.0038 17.303 75.0038 13.4394C75.0038 9.50296 77.7637 7.00458 80.8883 7.00458C82.3969 7.00458 83.8566 7.63406 84.4546 8.76386V0.588257H88.047V19.5355ZM84.3764 13.3623C84.3764 11.5238 83.0491 10.4461 81.5655 10.4461C80.0287 10.4461 78.7524 11.6019 78.7524 13.3623C78.7524 15.1791 80.0287 16.3295 81.5644 16.3295C83.0763 16.3317 84.3764 15.1227 84.3764 13.3623ZM66.1216 13.0454C66.1216 11.1808 67.0854 10.5503 68.3606 10.5503C69.5837 10.5503 70.4693 11.3643 70.4693 12.9922V19.5334H74.0877V12.2054C74.0877 8.71285 72.3686 7.00458 69.6348 7.00458C68.2032 7.00458 66.7717 7.81856 66.1205 9.05364V7.2694H62.5043V19.5334H66.1216V13.0454ZM55.1568 19.7439C51.7207 19.7439 48.8544 17.2227 48.8544 13.3612C48.8544 9.49753 51.7174 7.00133 55.1568 7.00133C58.5961 7.00133 61.4841 9.49753 61.4841 13.3612C61.4841 17.2249 58.5929 19.745 55.1568 19.745V19.7439ZM55.1568 16.1732C56.6653 16.1732 57.9167 15.0684 57.9167 13.3623C57.9167 11.7072 56.6664 10.5774 55.1568 10.5774C54.4222 10.5659 53.7151 10.8567 53.2011 11.3816C52.6842 11.9092 52.4034 12.6239 52.4229 13.3623C52.424 15.0706 53.6732 16.1732 55.1568 16.1732ZM42.3675 10.5514C43.4344 10.5514 44.3721 11.3925 44.3721 12.9933V19.5355H47.9645V12.57C47.9645 8.86697 46.1639 7.00241 43.2781 7.00241C42.4207 7.00241 40.8058 7.26289 39.6336 9.18171C38.9564 7.76321 37.6551 7.02737 35.732 7.02737C34.3683 7.02044 33.1265 7.81153 32.5564 9.05038V7.27048H28.9358V19.5344H32.5531V13.0454C32.5531 11.1808 33.569 10.5503 34.6619 10.5503C35.7038 10.5503 36.6393 11.3643 36.6664 12.9141V19.5344H40.2848V13.0454C40.2848 11.2622 41.2225 10.5524 42.3675 10.5524V10.5514Z" fill="#333333"/>
</svg>
