<svg width="138" height="30" viewBox="0 0 138 30" fill="none" xmlns="http://www.w3.org/2000/svg">
<path d="M136.385 10.7538C137.46 11.6237 136.322 12.9997 135.373 12.3038C134.202 11.5605 131.545 11.2126 131.213 12.8573C130.786 15.4513 137.666 13.9646 137.555 18.1716C137.445 22.1891 131.624 22.2839 129.441 20.4808C128.92 20.0539 128.935 19.3579 129.22 18.9308C129.631 18.5197 130.09 18.3773 130.628 18.8201C131.925 19.7058 135.262 20.3702 135.499 18.1243C135.294 15.7834 128.714 17.191 129.204 12.6993C129.568 9.63086 134.202 9.07724 136.385 10.7538ZM126.009 11.3706V17.0962C126.009 23.0114 116.471 23.0114 116.471 17.0962V11.3706C116.471 9.94725 118.543 9.88392 118.543 11.3706V17.0962C118.543 20.2119 123.937 20.4018 123.937 17.0962V11.3706C123.937 9.96295 126.009 9.85226 126.009 11.3706ZM60.7012 9.93142C63.469 10.0737 66.3634 11.9874 66.3634 15.736C66.3634 19.4844 63.469 21.4299 60.7012 21.4299C57.7751 21.5564 54.7384 19.611 54.7384 15.736C54.7384 11.8451 57.7751 9.93142 60.7012 9.93142ZM74.6357 10.3267C78.6531 10.3267 79.4755 15.7043 76.1225 17.0487L78.226 19.611C79.0485 20.8289 77.4035 21.9992 76.4546 20.7972L74.0663 17.3809H71.5831V20.2436C71.5831 21.6196 69.4796 21.6671 69.4796 20.2753V11.2916C69.4796 10.738 69.9066 10.3267 70.4286 10.3267H74.6357ZM41.8633 10.1845C42.322 10.1845 42.5909 10.4534 42.8598 10.7538L46.3394 15.4513L49.9455 10.5798C50.4674 9.93143 51.7486 10.1845 51.7486 11.2758V20.1804C51.7486 20.8763 51.3057 21.2717 50.7996 21.2717C50.2302 21.2717 49.7873 20.8763 49.7873 20.1804V14.3283L47.1619 17.6498C46.5924 18.3456 45.8807 18.3456 45.3588 17.6498L43.0021 14.3283V20.1804C43.0021 20.8763 42.4327 21.2717 41.8633 21.2717C41.3572 21.2717 40.9144 20.8763 40.9144 20.1804V11.2758C40.9144 10.4534 41.6103 10.1845 41.8633 10.1845ZM86.103 10.1845C88.1591 10.1845 90.0096 11.5605 90.0096 14.2018C90.0096 16.7007 88.1591 18.0926 86.103 18.0926H83.4616V20.1804C83.4616 20.8763 83.0187 21.2717 82.4493 21.2717C81.9274 21.2717 81.3738 20.8763 81.3738 20.1804V11.2758C81.3738 10.7538 81.7851 10.1845 82.4493 10.1845H86.103ZM101.208 10.3267C101.762 10.3267 102.189 10.738 102.189 11.3074V20.2911C102.189 20.8446 101.762 21.2717 101.208 21.2717C100.639 21.2717 100.133 20.8446 100.133 20.2911V16.8273H94.9764V20.2911C94.9764 20.8446 94.5652 21.2717 94.0116 21.2717C93.2999 21.2717 92.8886 20.8446 92.8886 20.2911V11.3074C92.8886 10.738 93.2999 10.3267 94.0116 10.3267C94.5652 10.3267 94.9764 10.738 94.9764 11.3074V14.7554H100.133V11.3074C100.133 10.738 100.639 10.3267 101.208 10.3267ZM112.217 10.3267C113.672 10.3267 113.64 12.3829 112.217 12.3829H107.662V14.7554H111.647C113.055 14.7554 113.055 16.8273 111.647 16.8273H107.662V19.1997H112.486C113.925 19.1997 114.035 21.2717 112.486 21.2717H106.539C105.985 21.2717 105.558 20.8446 105.558 20.2911V11.3074C105.558 10.738 105.985 10.3267 106.539 10.3267H112.217ZM60.5271 11.9874C58.7557 11.9874 56.8262 13.2371 56.8262 15.736C56.8262 18.2191 58.7557 19.4844 60.5271 19.4844C62.3461 19.4844 64.2915 18.2191 64.2915 15.736C64.2915 13.2371 62.3461 11.9874 60.5271 11.9874ZM86.103 12.1773H83.4616V16.1156H86.103C87.1626 16.1156 88.0009 15.1824 88.0009 14.2018C88.0009 13.0947 87.1626 12.1773 86.103 12.1773ZM74.6357 12.2405H71.5831V15.562H74.6357C76.6918 15.562 76.8183 12.2405 74.6357 12.2405Z" fill="#3DB5E6"/>
<path d="M28.368 18.63C26.826 24.8251 21.1841 29.2326 14.5393 29.2326C7.86438 29.2326 2.27109 24.5642 0.792297 18.3436C2.57047 18.3436 4.23281 18.3517 5.00456 18.3517C5.36861 18.3517 5.43931 18.358 5.46038 18.3565C6.04107 18.3279 6.76919 18.1363 7.25359 16.9584L9.09947 12.1298L13.1989 21.9999C13.5675 22.7867 14.1828 22.731 14.5498 22.731H14.5844C15.3005 22.731 15.6119 22.48 15.8842 21.961L20.5147 12.2038L22.0943 16.6011L22.1906 16.8141C22.5245 17.5467 22.7648 18.2703 23.5913 18.3649C23.7617 18.3844 25.7402 18.3498 28.4075 18.3498C28.4075 18.3498 28.4075 18.3669 28.368 18.63Z" fill="#3DB5E6"/>
<path d="M28.8207 14.9813C28.8207 15.055 28.8207 15.2404 28.8192 15.2404H28.8162H24.5589L22.0751 8.30208C21.8539 7.78608 21.5215 7.01253 20.5526 7.01253C19.9599 7.01253 19.4244 7.50205 19.1205 8.3099L14.6179 18.7393L10.2838 8.37316C9.85953 7.45248 9.56618 7.01949 8.71771 7.01949C8.14153 7.01949 7.7188 7.23173 7.25846 8.3224L4.68598 15.3434L0.41204 15.3389C0.409029 15.2321 0.407532 15.1253 0.407532 15.0185C0.407532 7.21379 6.73494 0.906128 14.5397 0.906128C22.3444 0.906128 28.8207 7.17655 28.8207 14.9813Z" fill="#D8292F"/>
</svg>
