<svg width="88" height="90" viewBox="0 0 88 90" fill="none" xmlns="http://www.w3.org/2000/svg">
<path d="M56 2.41593e-06C60.2023 2.23224e-06 64.3635 0.827707 68.2459 2.43586C72.1283 4.04401 75.6559 6.40111 78.6274 9.37258C81.5989 12.3441 83.956 15.8717 85.5641 19.7541C87.1723 23.6365 88 27.7977 88 32L56 32L56 2.41593e-06Z" fill="#E8F2FF"/>
<path d="M32 26C36.2023 26 40.3635 26.8277 44.2459 28.4359C48.1283 30.044 51.6559 32.4011 54.6274 35.3726C57.5989 38.3441 59.956 41.8717 61.5641 45.7541C63.1723 49.6365 64 53.7977 64 58L32 58L32 26Z" fill="#E8F2FF"/>
</svg>
